<svg xmlns="http://www.w3.org/2000/svg" width="1940" height="150.501" viewBox="0 0 1940 150.501">
  <path id="Subtração_6" data-name="Subtração 6" d="M2002,150.5H62V72.928l.045-.01c1.547-.311,15.774-3.152,38.758-7.184,22.451-3.938,58.243-9.88,101.262-15.826,48.353-6.683,95.791-12.008,141-15.826,56.507-4.774,109.668-7.194,158.006-7.194,26.8,0,52.543.749,76.5,2.226,25.76,1.588,50.15,4.061,72.492,7.35,15.947,2.338,31.775,5.008,48.388,8.165,14.777,2.808,29.828,5.937,46.013,9.565,30.034,6.733,59.3,14.161,87.6,21.345l.015,0c22.667,5.753,46.105,11.7,69.4,17.148,26.087,6.1,49.423,10.95,71.341,14.834,26.248,4.651,51.141,8.063,76.1,10.43,13.509,1.281,27.21,2.26,40.723,2.912,14.167.682,28.627,1.029,42.978,1.029,76.086,0,156.867-9.511,246.959-29.077,81.587-17.769,165.077-33.706,248.152-47.367,66.459-10.93,132.8-20.436,197.189-28.255C1882.2,10.24,1927.3,5.935,1955.047,3.548,1985.232.952,2001.835.01,2002,0V150.5Z" transform="translate(-61.999 0)" fill="#fff"/>
</svg>
